<svg xmlns="http://www.w3.org/2000/svg" style="display: none;">
  <!-- Dashboard Icon -->
  <symbol id="dashboard" viewBox="0 0 24 24">
    <path fill="currentColor" d="M3 13h8V3H3v10zm0 8h8v-6H3v6zm10 0h8V11h-8v10zm0-18v6h8V3h-8z"/>
  </symbol>

  <!-- Covid Virus Icon -->
  <symbol id="covid" viewBox="0 0 24 24">
    <path fill="currentColor" d="M12 7a5 5 0 1 0 5 5 5 5 0 0 0-5-5zm0-2a1 1 0 0 1 1-1h1a1 1 0 0 1 0 2h-1a1 1 0 0 1-1-1zm0 14a1 1 0 0 1 1 1v1a1 1 0 0 1-2 0v-1a1 1 0 0 1 1-1zm7-7a1 1 0 0 1 1-1h1a1 1 0 0 1 0 2h-1a1 1 0 0 1-1-1zM4 12a1 1 0 0 1 1-1h1a1 1 0 0 1 0 2H5a1 1 0 0 1-1-1zm12.07-5.07a1 1 0 0 1 1.41 0l.7.7a1 1 0 1 1-1.41 1.41l-.7-.7a1 1 0 0 1 0-1.41zM6.22 16.36a1 1 0 0 1 1.41 0l.7.7a1 1 0 1 1-1.41 1.41l-.7-.7a1 1 0 0 1 0-1.41zm11.26 0 .7.7a1 1 0 1 1-1.41 1.41l-.7-.7a1 1 0 0 1 1.41-1.41zM6.22 7.64l.7-.7a1 1 0 0 1 1.41 1.41l-.7.7a1 1 0 1 1-1.41-1.41z"/>
  </symbol>

  <!-- Stock Candlestick Tickers Icon -->
  <symbol id="trending_up" viewBox="0 0 24 24">
    <path fill="currentColor" d="M3 21h18v-2H3v2zm2-4h2v-6H5v6zm4-8h2v-4H9v4zm4 4h2V5h-2v9zm4-6h2V7h-2v3z"/>
  </symbol>

  <!-- Modular Page Grid Builder Icon -->
  <symbol id="dashboard_customize" viewBox="0 0 24 24">
    <path fill="currentColor" d="M2 5c0-1.1.9-2 2-2h16c1.1 0 2 .9 2 2v14c0 1.1-.9 2-2 2H4c-1.1 0-2-.9-2-2V5zm4 3h12V6H6v2zm0 5h12v-3H6v3zm0 5h12v-3H6v3z"/>
  </symbol>

  <!-- Dynamic Stacked Layers Icon -->
  <symbol id="layers" viewBox="0 0 24 24">
    <path fill="currentColor" d="M12 2L1 7l11 5 11-5-11-5zM2 17l10 5 10-5M2 12l10 5 10-5"/>
  </symbol>

  <!-- Mechanical Settings Gear Icon -->
  <symbol id="settings" viewBox="0 0 24 24">
    <path fill="currentColor" d="M19.14 12.94c.04-.3.06-.61.06-.94 0-.32-.02-.64-.07-.94l2.03-1.58a.49.49 0 0 0 .12-.61l-1.92-3.32a.488.488 0 0 0-.59-.22l-2.39.96c-.5-.38-1.03-.7-1.62-.94l-.36-2.54a.484.484 0 0 0-.48-.41h-3.84c-.24 0-.43.17-.47.41l-.36 2.54c-.59.24-1.13.57-1.62.94l-2.39-.96a.488.488 0 0 0-.59.22L2.74 8.87c-.12.21-.08.47.12.61l2.03 1.58c-.05.3-.09.63-.09.94s.02.64.07.94l-2.03 1.58a.49.49 0 0 0-.12.61l1.92 3.32c.12.22.37.29.59.22l2.39-.96c.5.38 1.03.7 1.62.94l.36 2.54c.05.24.24.41.48.41h3.84c.24 0 .44-.17.47-.41l.36-2.54c.59-.24 1.13-.56 1.62-.94l2.39.96c.22.08.47 0 .59-.22l1.92-3.32c.12-.22.07-.47-.12-.61l-2.01-1.58zM12 15.6c-1.98 0-3.6-1.62-3.6-3.6s1.62-3.6 3.6-3.6 3.6 1.62 3.6 3.6-1.62 3.6-3.6 3.6z"/>
  </symbol>
</svg>
